<mxfile host="app.diagrams.net" agent="Mozilla/5.0 (Windows NT 10.0; Win64; x64) AppleWebKit/537.36 (KHTML, like Gecko) Chrome/135.0.0.0 Safari/537.36" version="26.2.12" pages="4">
  <diagram name="第 1 页" id="sgR4GXQtV7XCU3g_qCtF">
    <mxGraphModel dx="969" dy="617" grid="1" gridSize="10" guides="1" tooltips="1" connect="1" arrows="1" fold="1" page="1" pageScale="1" pageWidth="827" pageHeight="1169" math="1" shadow="0">
      <root>
        <mxCell id="0" />
        <mxCell id="1" parent="0" />
        <mxCell id="0oyeRSwhuwKd7t1pJqrZ-2" value="&lt;font style=&quot;font-size: 16px;&quot;&gt;查询：(European Union, Engage in diplomatic cooperation, ?, 2018-10-23)&lt;/font&gt;&lt;div&gt;&lt;font size=&quot;3&quot;&gt;答案：United Kingdom&lt;/font&gt;&lt;/div&gt;" style="text;html=1;align=left;verticalAlign=middle;whiteSpace=wrap;rounded=0;fontFamily=Helvetica;fontSize=11;fontColor=default;labelBackgroundColor=none;" vertex="1" parent="1">
          <mxGeometry x="110" y="80" width="560" height="60" as="geometry" />
        </mxCell>
        <mxCell id="0oyeRSwhuwKd7t1pJqrZ-4" value="&lt;font style=&quot;font-size: 16px;&quot;&gt;Sign formal agreement,&amp;nbsp;2018-10-22&lt;/font&gt;" style="text;html=1;align=center;verticalAlign=middle;whiteSpace=wrap;rounded=0;fontFamily=Helvetica;fontSize=11;fontColor=default;labelBackgroundColor=none;" vertex="1" parent="1">
          <mxGeometry x="150" y="130" width="410" height="60" as="geometry" />
        </mxCell>
        <mxCell id="0oyeRSwhuwKd7t1pJqrZ-9" style="edgeStyle=orthogonalEdgeStyle;shape=connector;curved=1;rounded=0;orthogonalLoop=1;jettySize=auto;html=1;entryX=0;entryY=0.5;entryDx=0;entryDy=0;strokeColor=#990000;align=center;verticalAlign=middle;fontFamily=Helvetica;fontSize=11;fontColor=default;labelBackgroundColor=default;startFill=0;endArrow=openThin;exitX=1;exitY=0.5;exitDx=0;exitDy=0;strokeWidth=3;endFill=0;" edge="1" parent="1" source="0oyeRSwhuwKd7t1pJqrZ-5" target="0oyeRSwhuwKd7t1pJqrZ-6">
          <mxGeometry relative="1" as="geometry">
            <Array as="points">
              <mxPoint x="190" y="180" />
              <mxPoint x="510" y="180" />
            </Array>
          </mxGeometry>
        </mxCell>
        <mxCell id="0oyeRSwhuwKd7t1pJqrZ-13" style="edgeStyle=orthogonalEdgeStyle;shape=connector;curved=1;rounded=0;orthogonalLoop=1;jettySize=auto;html=1;strokeColor=#990000;align=center;verticalAlign=middle;fontFamily=Helvetica;fontSize=11;fontColor=default;labelBackgroundColor=default;startFill=0;endArrow=openThin;strokeWidth=1.5;endFill=0;" edge="1" parent="1" source="0oyeRSwhuwKd7t1pJqrZ-5">
          <mxGeometry relative="1" as="geometry">
            <mxPoint x="510" y="230" as="targetPoint" />
          </mxGeometry>
        </mxCell>
        <mxCell id="0oyeRSwhuwKd7t1pJqrZ-5" value="&lt;font style=&quot;font-size: 16px;&quot;&gt;European Union&lt;/font&gt;" style="rounded=0;whiteSpace=wrap;html=1;fillColor=#f5f5f5;fontColor=#333333;strokeColor=#666666;" vertex="1" parent="1">
          <mxGeometry x="70" y="200" width="120" height="60" as="geometry" />
        </mxCell>
        <mxCell id="0oyeRSwhuwKd7t1pJqrZ-6" value="&lt;font style=&quot;font-size: 16px;&quot;&gt;United Kingdom&lt;/font&gt;" style="rounded=0;whiteSpace=wrap;html=1;fillColor=#f5f5f5;fontColor=#333333;strokeColor=#666666;" vertex="1" parent="1">
          <mxGeometry x="510" y="200" width="120" height="60" as="geometry" />
        </mxCell>
        <mxCell id="0oyeRSwhuwKd7t1pJqrZ-11" value="&lt;font style=&quot;font-size: 16px;&quot;&gt;&lt;span style=&quot;text-align: left; background-color: rgb(255, 255, 255);&quot;&gt;Engage in diplomatic cooperation&lt;/span&gt;,&amp;nbsp;2018-10-14&lt;/font&gt;" style="text;html=1;align=center;verticalAlign=middle;whiteSpace=wrap;rounded=0;fontFamily=Helvetica;fontSize=11;fontColor=default;labelBackgroundColor=none;" vertex="1" parent="1">
          <mxGeometry x="150" y="250" width="410" height="60" as="geometry" />
        </mxCell>
        <mxCell id="0oyeRSwhuwKd7t1pJqrZ-12" style="edgeStyle=orthogonalEdgeStyle;shape=connector;curved=1;rounded=0;orthogonalLoop=1;jettySize=auto;html=1;strokeColor=#990000;align=center;verticalAlign=middle;fontFamily=Helvetica;fontSize=11;fontColor=default;labelBackgroundColor=default;startFill=0;endArrow=openThin;exitX=1;exitY=0.5;exitDx=0;exitDy=0;strokeWidth=2;endFill=0;" edge="1" parent="1" source="0oyeRSwhuwKd7t1pJqrZ-5">
          <mxGeometry relative="1" as="geometry">
            <mxPoint x="510" y="230" as="targetPoint" />
            <Array as="points">
              <mxPoint x="190" y="263" />
            </Array>
          </mxGeometry>
        </mxCell>
        <mxCell id="0oyeRSwhuwKd7t1pJqrZ-15" value="&lt;font style=&quot;font-size: 16px;&quot;&gt;&lt;span style=&quot;text-align: left;&quot;&gt;&amp;nbsp;Express intent to engage in diplomatic cooperation&lt;/span&gt;,&amp;nbsp;2018-10-22&lt;/font&gt;" style="text;html=1;align=center;verticalAlign=middle;whiteSpace=wrap;rounded=0;fontFamily=Helvetica;fontSize=11;fontColor=default;labelBackgroundColor=none;" vertex="1" parent="1">
          <mxGeometry x="150" y="200" width="410" height="60" as="geometry" />
        </mxCell>
        <mxCell id="0oyeRSwhuwKd7t1pJqrZ-16" value="&lt;font style=&quot;font-size: 16px;&quot;&gt;查询：(Ashraf Ghani Ahmadzai, Consult, ?, 2018-10-16)&lt;/font&gt;&lt;div&gt;&lt;font size=&quot;3&quot;&gt;答案：&lt;/font&gt;&lt;span style=&quot;background-color: transparent;&quot;&gt;&lt;font size=&quot;3&quot;&gt;Zalmay Mamozy Khalilzad&lt;/font&gt;&lt;/span&gt;&lt;/div&gt;" style="text;html=1;align=left;verticalAlign=middle;whiteSpace=wrap;rounded=0;fontFamily=Helvetica;fontSize=11;fontColor=default;labelBackgroundColor=none;" vertex="1" parent="1">
          <mxGeometry x="110" y="340" width="560" height="60" as="geometry" />
        </mxCell>
        <mxCell id="0oyeRSwhuwKd7t1pJqrZ-17" value="&lt;font style=&quot;font-size: 16px;&quot;&gt;&lt;svg style=&quot;vertical-align: -0.05ex;&quot; xmlns:xlink=&quot;http://www.w3.org/1999/xlink&quot; viewBox=&quot;0 -883.9 4531.7 905.9&quot; role=&quot;img&quot; height=&quot;2.05ex&quot; width=&quot;10.253ex&quot; xmlns=&quot;http://www.w3.org/2000/svg&quot;&gt;&lt;defs&gt;&lt;path d=&quot;M50 252Q50 367 117 473T286 641T490 704Q580 704 633 653Q642 643 648 636T656 626L657 623Q660 623 684 649Q691 655 699 663T715 679T725 690L740 705H746Q760 705 760 698Q760 694 728 561Q692 422 692 421Q690 416 687 415T669 413H653Q647 419 647 422Q647 423 648 429T650 449T651 481Q651 552 619 605T510 659Q484 659 454 652T382 628T299 572T226 479Q194 422 175 346T156 222Q156 108 232 58Q280 24 350 24Q441 24 512 92T606 240Q610 253 612 255T628 257Q648 257 648 248Q648 243 647 239Q618 132 523 55T319 -22Q206 -22 128 53T50 252Z&quot; id=&quot;MJX-8-TEX-I-1D436&quot;&gt;&lt;/path&gt;&lt;path d=&quot;M201 -11Q126 -11 80 38T34 156Q34 221 64 279T146 380Q222 441 301 441Q333 441 341 440Q354 437 367 433T402 417T438 387T464 338T476 268Q476 161 390 75T201 -11ZM121 120Q121 70 147 48T206 26Q250 26 289 58T351 142Q360 163 374 216T388 308Q388 352 370 375Q346 405 306 405Q243 405 195 347Q158 303 140 230T121 120Z&quot; id=&quot;MJX-8-TEX-I-1D45C&quot;&gt;&lt;/path&gt;&lt;path d=&quot;M21 287Q22 293 24 303T36 341T56 388T89 425T135 442Q171 442 195 424T225 390T231 369Q231 367 232 367L243 378Q304 442 382 442Q436 442 469 415T503 336T465 179T427 52Q427 26 444 26Q450 26 453 27Q482 32 505 65T540 145Q542 153 560 153Q580 153 580 145Q580 144 576 130Q568 101 554 73T508 17T439 -10Q392 -10 371 17T350 73Q350 92 386 193T423 345Q423 404 379 404H374Q288 404 229 303L222 291L189 157Q156 26 151 16Q138 -11 108 -11Q95 -11 87 -5T76 7T74 17Q74 30 112 180T152 343Q153 348 153 366Q153 405 129 405Q91 405 66 305Q60 285 60 284Q58 278 41 278H27Q21 284 21 287Z&quot; id=&quot;MJX-8-TEX-I-1D45B&quot;&gt;&lt;/path&gt;&lt;path d=&quot;M131 289Q131 321 147 354T203 415T300 442Q362 442 390 415T419 355Q419 323 402 308T364 292Q351 292 340 300T328 326Q328 342 337 354T354 372T367 378Q368 378 368 379Q368 382 361 388T336 399T297 405Q249 405 227 379T204 326Q204 301 223 291T278 274T330 259Q396 230 396 163Q396 135 385 107T352 51T289 7T195 -10Q118 -10 86 19T53 87Q53 126 74 143T118 160Q133 160 146 151T160 120Q160 94 142 76T111 58Q109 57 108 57T107 55Q108 52 115 47T146 34T201 27Q237 27 263 38T301 66T318 97T323 122Q323 150 302 164T254 181T195 196T148 231Q131 256 131 289Z&quot; id=&quot;MJX-8-TEX-I-1D460&quot;&gt;&lt;/path&gt;&lt;path d=&quot;M21 287Q21 295 30 318T55 370T99 420T158 442Q204 442 227 417T250 358Q250 340 216 246T182 105Q182 62 196 45T238 27T291 44T328 78L339 95Q341 99 377 247Q407 367 413 387T427 416Q444 431 463 431Q480 431 488 421T496 402L420 84Q419 79 419 68Q419 43 426 35T447 26Q469 29 482 57T512 145Q514 153 532 153Q551 153 551 144Q550 139 549 130T540 98T523 55T498 17T462 -8Q454 -10 438 -10Q372 -10 347 46Q345 45 336 36T318 21T296 6T267 -6T233 -11Q189 -11 155 7Q103 38 103 113Q103 170 138 262T173 379Q173 380 173 381Q173 390 173 393T169 400T158 404H154Q131 404 112 385T82 344T65 302T57 280Q55 278 41 278H27Q21 284 21 287Z&quot; id=&quot;MJX-8-TEX-I-1D462&quot;&gt;&lt;/path&gt;&lt;path d=&quot;M117 59Q117 26 142 26Q179 26 205 131Q211 151 215 152Q217 153 225 153H229Q238 153 241 153T246 151T248 144Q247 138 245 128T234 90T214 43T183 6T137 -11Q101 -11 70 11T38 85Q38 97 39 102L104 360Q167 615 167 623Q167 626 166 628T162 632T157 634T149 635T141 636T132 637T122 637Q112 637 109 637T101 638T95 641T94 647Q94 649 96 661Q101 680 107 682T179 688Q194 689 213 690T243 693T254 694Q266 694 266 686Q266 675 193 386T118 83Q118 81 118 75T117 65V59Z&quot; id=&quot;MJX-8-TEX-I-1D459&quot;&gt;&lt;/path&gt;&lt;path d=&quot;M26 385Q19 392 19 395Q19 399 22 411T27 425Q29 430 36 430T87 431H140L159 511Q162 522 166 540T173 566T179 586T187 603T197 615T211 624T229 626Q247 625 254 615T261 596Q261 589 252 549T232 470L222 433Q222 431 272 431H323Q330 424 330 420Q330 398 317 385H210L174 240Q135 80 135 68Q135 26 162 26Q197 26 230 60T283 144Q285 150 288 151T303 153H307Q322 153 322 145Q322 142 319 133Q314 117 301 95T267 48T216 6T155 -11Q125 -11 98 4T59 56Q57 64 57 83V101L92 241Q127 382 128 383Q128 385 77 385H26Z&quot; id=&quot;MJX-8-TEX-I-1D461&quot;&gt;&lt;/path&gt;&lt;path d=&quot;M84 237T84 250T98 270H679Q694 262 694 250T679 230H98Q84 237 84 250Z&quot; id=&quot;MJX-8-TEX-N-2212&quot;&gt;&lt;/path&gt;&lt;path d=&quot;M213 578L200 573Q186 568 160 563T102 556H83V602H102Q149 604 189 617T245 641T273 663Q275 666 285 666Q294 666 302 660V361L303 61Q310 54 315 52T339 48T401 46H427V0H416Q395 3 257 3Q121 3 100 0H88V46H114Q136 46 152 46T177 47T193 50T201 52T207 57T213 61V578Z&quot; id=&quot;MJX-8-TEX-N-31&quot;&gt;&lt;/path&gt;&lt;/defs&gt;&lt;g transform=&quot;scale(1,-1)&quot; stroke-width=&quot;0&quot; fill=&quot;currentColor&quot; stroke=&quot;currentColor&quot;&gt;&lt;g data-mml-node=&quot;math&quot;&gt;&lt;g data-mml-node=&quot;mi&quot;&gt;&lt;use xlink:href=&quot;#MJX-8-TEX-I-1D436&quot; data-c=&quot;1D436&quot;&gt;&lt;/use&gt;&lt;/g&gt;&lt;g transform=&quot;translate(760,0)&quot; data-mml-node=&quot;mi&quot;&gt;&lt;use xlink:href=&quot;#MJX-8-TEX-I-1D45C&quot; data-c=&quot;1D45C&quot;&gt;&lt;/use&gt;&lt;/g&gt;&lt;g transform=&quot;translate(1245,0)&quot; data-mml-node=&quot;mi&quot;&gt;&lt;use xlink:href=&quot;#MJX-8-TEX-I-1D45B&quot; data-c=&quot;1D45B&quot;&gt;&lt;/use&gt;&lt;/g&gt;&lt;g transform=&quot;translate(1845,0)&quot; data-mml-node=&quot;mi&quot;&gt;&lt;use xlink:href=&quot;#MJX-8-TEX-I-1D460&quot; data-c=&quot;1D460&quot;&gt;&lt;/use&gt;&lt;/g&gt;&lt;g transform=&quot;translate(2314,0)&quot; data-mml-node=&quot;mi&quot;&gt;&lt;use xlink:href=&quot;#MJX-8-TEX-I-1D462&quot; data-c=&quot;1D462&quot;&gt;&lt;/use&gt;&lt;/g&gt;&lt;g transform=&quot;translate(2886,0)&quot; data-mml-node=&quot;mi&quot;&gt;&lt;use xlink:href=&quot;#MJX-8-TEX-I-1D459&quot; data-c=&quot;1D459&quot;&gt;&lt;/use&gt;&lt;/g&gt;&lt;g transform=&quot;translate(3184,0)&quot; data-mml-node=&quot;msup&quot;&gt;&lt;g data-mml-node=&quot;mi&quot;&gt;&lt;use xlink:href=&quot;#MJX-8-TEX-I-1D461&quot; data-c=&quot;1D461&quot;&gt;&lt;/use&gt;&lt;/g&gt;&lt;g data-mjx-texclass=&quot;ORD&quot; transform=&quot;translate(394,413) scale(0.707)&quot; data-mml-node=&quot;TeXAtom&quot;&gt;&lt;g data-mml-node=&quot;mo&quot;&gt;&lt;use xlink:href=&quot;#MJX-8-TEX-N-2212&quot; data-c=&quot;2212&quot;&gt;&lt;/use&gt;&lt;/g&gt;&lt;g transform=&quot;translate(778,0)&quot; data-mml-node=&quot;mn&quot;&gt;&lt;use xlink:href=&quot;#MJX-8-TEX-N-31&quot; data-c=&quot;31&quot;&gt;&lt;/use&gt;&lt;/g&gt;&lt;/g&gt;&lt;/g&gt;&lt;/g&gt;&lt;/g&gt;&lt;/svg&gt;,&amp;nbsp;2018-10-13&lt;/font&gt;" style="text;html=1;align=center;verticalAlign=middle;whiteSpace=wrap;rounded=0;fontFamily=Helvetica;fontSize=11;fontColor=default;labelBackgroundColor=none;" vertex="1" parent="1">
          <mxGeometry x="150" y="390" width="410" height="60" as="geometry" />
        </mxCell>
        <mxCell id="0oyeRSwhuwKd7t1pJqrZ-18" style="edgeStyle=orthogonalEdgeStyle;shape=connector;curved=1;rounded=0;orthogonalLoop=1;jettySize=auto;html=1;entryX=0;entryY=0.5;entryDx=0;entryDy=0;strokeColor=#990000;align=center;verticalAlign=middle;fontFamily=Helvetica;fontSize=11;fontColor=default;labelBackgroundColor=default;startFill=0;endArrow=openThin;exitX=1;exitY=0.5;exitDx=0;exitDy=0;strokeWidth=3;endFill=0;" edge="1" parent="1" source="0oyeRSwhuwKd7t1pJqrZ-20" target="0oyeRSwhuwKd7t1pJqrZ-21">
          <mxGeometry relative="1" as="geometry">
            <Array as="points">
              <mxPoint x="190" y="440" />
              <mxPoint x="510" y="440" />
            </Array>
          </mxGeometry>
        </mxCell>
        <mxCell id="0oyeRSwhuwKd7t1pJqrZ-20" value="&lt;span style=&quot;color: rgb(0, 0, 0); font-size: 16px; text-align: left;&quot;&gt;Ashraf Ghani Ahmadzai&lt;/span&gt;" style="rounded=0;whiteSpace=wrap;html=1;fillColor=#f5f5f5;fontColor=#333333;strokeColor=#666666;" vertex="1" parent="1">
          <mxGeometry x="70" y="460" width="120" height="60" as="geometry" />
        </mxCell>
        <mxCell id="0oyeRSwhuwKd7t1pJqrZ-21" value="&lt;span style=&quot;color: rgb(0, 0, 0); font-size: medium; text-align: left;&quot;&gt;Zalmay Mamozy Khalilzad&lt;/span&gt;" style="rounded=0;whiteSpace=wrap;html=1;fillColor=#f5f5f5;fontColor=#333333;strokeColor=#666666;" vertex="1" parent="1">
          <mxGeometry x="510" y="460" width="120" height="60" as="geometry" />
        </mxCell>
        <mxCell id="0oyeRSwhuwKd7t1pJqrZ-24" value="&lt;div style=&quot;text-align: left;&quot;&gt;&lt;span style=&quot;background-color: transparent; font-size: 16px;&quot;&gt;Engage in negotiation&lt;/span&gt;&lt;span style=&quot;font-size: 16px; background-color: transparent; color: light-dark(rgb(0, 0, 0), rgb(255, 255, 255));&quot;&gt;,&amp;nbsp;2018-10-09&lt;/span&gt;&lt;/div&gt;" style="text;html=1;align=center;verticalAlign=middle;whiteSpace=wrap;rounded=0;fontFamily=Helvetica;fontSize=11;fontColor=default;labelBackgroundColor=none;" vertex="1" parent="1">
          <mxGeometry x="150" y="475" width="410" height="60" as="geometry" />
        </mxCell>
        <mxCell id="0oyeRSwhuwKd7t1pJqrZ-31" style="edgeStyle=orthogonalEdgeStyle;shape=connector;curved=1;rounded=0;orthogonalLoop=1;jettySize=auto;html=1;strokeColor=#990000;align=center;verticalAlign=middle;fontFamily=Helvetica;fontSize=11;fontColor=default;labelBackgroundColor=default;startFill=0;endArrow=openThin;exitX=1;exitY=0.5;exitDx=0;exitDy=0;strokeWidth=2;endFill=0;" edge="1" parent="1">
          <mxGeometry relative="1" as="geometry">
            <mxPoint x="190" y="490" as="sourcePoint" />
            <mxPoint x="510" y="490" as="targetPoint" />
            <Array as="points">
              <mxPoint x="190" y="523" />
            </Array>
          </mxGeometry>
        </mxCell>
        <mxCell id="0oyeRSwhuwKd7t1pJqrZ-36" value="&lt;font style=&quot;font-size: 16px;&quot;&gt;（1）&lt;/font&gt;" style="text;html=1;align=center;verticalAlign=middle;whiteSpace=wrap;rounded=0;fontFamily=Helvetica;fontSize=11;fontColor=default;labelBackgroundColor=default;" vertex="1" parent="1">
          <mxGeometry x="30" y="80" width="60" height="30" as="geometry" />
        </mxCell>
        <mxCell id="0oyeRSwhuwKd7t1pJqrZ-37" value="&lt;font style=&quot;font-size: 16px;&quot;&gt;（2）&lt;/font&gt;" style="text;html=1;align=center;verticalAlign=middle;whiteSpace=wrap;rounded=0;fontFamily=Helvetica;fontSize=11;fontColor=default;labelBackgroundColor=default;" vertex="1" parent="1">
          <mxGeometry x="40" y="320" width="60" height="30" as="geometry" />
        </mxCell>
      </root>
    </mxGraphModel>
  </diagram>
  <diagram name="第 1 页 的中文版" id="VftErcvCtru4TjViBxkR">
    <mxGraphModel dx="1215" dy="753" grid="1" gridSize="10" guides="1" tooltips="1" connect="1" arrows="1" fold="1" page="1" pageScale="1" pageWidth="827" pageHeight="1169" math="1" shadow="0">
      <root>
        <mxCell id="MMJxIbt0c7kDPVOxYgh2-0" />
        <mxCell id="MMJxIbt0c7kDPVOxYgh2-1" parent="MMJxIbt0c7kDPVOxYgh2-0" />
        <mxCell id="MMJxIbt0c7kDPVOxYgh2-2" value="&lt;font&gt;查询：(欧盟, 开展外交合作, ?, 2018-10-23)&lt;/font&gt;&lt;div&gt;&lt;font&gt;答案：英国&lt;/font&gt;&lt;/div&gt;" style="text;html=1;align=left;verticalAlign=middle;whiteSpace=wrap;rounded=0;fontFamily=宋体;fontSize=20;fontColor=default;labelBackgroundColor=none;" parent="MMJxIbt0c7kDPVOxYgh2-1" vertex="1">
          <mxGeometry x="110" y="80" width="560" height="60" as="geometry" />
        </mxCell>
        <mxCell id="MMJxIbt0c7kDPVOxYgh2-3" value="&lt;font&gt;签署正式协议,&amp;nbsp;2018-10-22&lt;/font&gt;" style="text;html=1;align=center;verticalAlign=middle;whiteSpace=wrap;rounded=0;fontFamily=宋体;fontSize=20;fontColor=default;labelBackgroundColor=none;" parent="MMJxIbt0c7kDPVOxYgh2-1" vertex="1">
          <mxGeometry x="150" y="130" width="410" height="60" as="geometry" />
        </mxCell>
        <mxCell id="MMJxIbt0c7kDPVOxYgh2-4" style="edgeStyle=orthogonalEdgeStyle;shape=connector;curved=1;rounded=0;orthogonalLoop=1;jettySize=auto;html=1;entryX=0;entryY=0.5;entryDx=0;entryDy=0;strokeColor=#990000;align=center;verticalAlign=middle;fontFamily=宋体;fontSize=20;fontColor=default;labelBackgroundColor=default;startFill=0;endArrow=openThin;exitX=1;exitY=0.5;exitDx=0;exitDy=0;strokeWidth=3;endFill=0;" parent="MMJxIbt0c7kDPVOxYgh2-1" source="MMJxIbt0c7kDPVOxYgh2-6" target="MMJxIbt0c7kDPVOxYgh2-7" edge="1">
          <mxGeometry relative="1" as="geometry">
            <Array as="points">
              <mxPoint x="190" y="180" />
              <mxPoint x="510" y="180" />
            </Array>
          </mxGeometry>
        </mxCell>
        <mxCell id="MMJxIbt0c7kDPVOxYgh2-5" style="edgeStyle=orthogonalEdgeStyle;shape=connector;curved=1;rounded=0;orthogonalLoop=1;jettySize=auto;html=1;strokeColor=#990000;align=center;verticalAlign=middle;fontFamily=宋体;fontSize=20;fontColor=default;labelBackgroundColor=default;startFill=0;endArrow=openThin;strokeWidth=1.5;endFill=0;" parent="MMJxIbt0c7kDPVOxYgh2-1" source="MMJxIbt0c7kDPVOxYgh2-6" edge="1">
          <mxGeometry relative="1" as="geometry">
            <mxPoint x="510" y="230" as="targetPoint" />
          </mxGeometry>
        </mxCell>
        <mxCell id="MMJxIbt0c7kDPVOxYgh2-6" value="&lt;font&gt;欧盟&lt;/font&gt;" style="rounded=0;whiteSpace=wrap;html=1;fillColor=#f5f5f5;fontColor=#333333;strokeColor=#666666;fontFamily=宋体;fontSize=20;" parent="MMJxIbt0c7kDPVOxYgh2-1" vertex="1">
          <mxGeometry x="70" y="200" width="120" height="60" as="geometry" />
        </mxCell>
        <mxCell id="MMJxIbt0c7kDPVOxYgh2-7" value="&lt;font&gt;英国&lt;/font&gt;" style="rounded=0;whiteSpace=wrap;html=1;fillColor=#f5f5f5;fontColor=#333333;strokeColor=#666666;fontFamily=宋体;fontSize=20;" parent="MMJxIbt0c7kDPVOxYgh2-1" vertex="1">
          <mxGeometry x="510" y="200" width="120" height="60" as="geometry" />
        </mxCell>
        <mxCell id="MMJxIbt0c7kDPVOxYgh2-8" value="&lt;font&gt;开展外交合作,&amp;nbsp;2018-10-14&lt;/font&gt;" style="text;html=1;align=center;verticalAlign=middle;whiteSpace=wrap;rounded=0;fontFamily=宋体;fontSize=20;fontColor=default;labelBackgroundColor=none;" parent="MMJxIbt0c7kDPVOxYgh2-1" vertex="1">
          <mxGeometry x="150" y="250" width="410" height="60" as="geometry" />
        </mxCell>
        <mxCell id="MMJxIbt0c7kDPVOxYgh2-9" style="edgeStyle=orthogonalEdgeStyle;shape=connector;curved=1;rounded=0;orthogonalLoop=1;jettySize=auto;html=1;strokeColor=#990000;align=center;verticalAlign=middle;fontFamily=宋体;fontSize=20;fontColor=default;labelBackgroundColor=default;startFill=0;endArrow=openThin;exitX=1;exitY=0.5;exitDx=0;exitDy=0;strokeWidth=2;endFill=0;" parent="MMJxIbt0c7kDPVOxYgh2-1" source="MMJxIbt0c7kDPVOxYgh2-6" edge="1">
          <mxGeometry relative="1" as="geometry">
            <mxPoint x="510" y="230" as="targetPoint" />
            <Array as="points">
              <mxPoint x="190" y="263" />
            </Array>
          </mxGeometry>
        </mxCell>
        <mxCell id="MMJxIbt0c7kDPVOxYgh2-10" value="&lt;font&gt;表示有意进行外交合作,&amp;nbsp;2018-10-22&lt;/font&gt;" style="text;html=1;align=center;verticalAlign=middle;whiteSpace=wrap;rounded=0;fontFamily=宋体;fontSize=20;fontColor=default;labelBackgroundColor=none;" parent="MMJxIbt0c7kDPVOxYgh2-1" vertex="1">
          <mxGeometry x="150" y="190" width="410" height="60" as="geometry" />
        </mxCell>
        <mxCell id="MMJxIbt0c7kDPVOxYgh2-11" value="&lt;font&gt;查询：(阿什拉夫·加尼·艾哈迈德扎伊, 商议, ?, 2018-10-16)&lt;/font&gt;&lt;div&gt;&lt;font&gt;答案：&lt;/font&gt;&lt;span style=&quot;background-color: transparent;&quot;&gt;&lt;font&gt;扎勒迈·马莫齐·哈利勒扎德&lt;/font&gt;&lt;/span&gt;&lt;/div&gt;" style="text;html=1;align=left;verticalAlign=middle;whiteSpace=wrap;rounded=0;fontFamily=宋体;fontSize=20;fontColor=default;labelBackgroundColor=none;" parent="MMJxIbt0c7kDPVOxYgh2-1" vertex="1">
          <mxGeometry x="90" y="340" width="580" height="60" as="geometry" />
        </mxCell>
        <mxCell id="MMJxIbt0c7kDPVOxYgh2-13" style="edgeStyle=orthogonalEdgeStyle;shape=connector;curved=1;rounded=0;orthogonalLoop=1;jettySize=auto;html=1;entryX=0;entryY=0.5;entryDx=0;entryDy=0;strokeColor=#990000;align=center;verticalAlign=middle;fontFamily=宋体;fontSize=20;fontColor=default;labelBackgroundColor=default;startFill=0;endArrow=openThin;exitX=1;exitY=0.5;exitDx=0;exitDy=0;strokeWidth=3;endFill=0;" parent="MMJxIbt0c7kDPVOxYgh2-1" source="MMJxIbt0c7kDPVOxYgh2-14" target="MMJxIbt0c7kDPVOxYgh2-15" edge="1">
          <mxGeometry relative="1" as="geometry">
            <Array as="points">
              <mxPoint x="190" y="440" />
              <mxPoint x="510" y="440" />
            </Array>
          </mxGeometry>
        </mxCell>
        <mxCell id="MMJxIbt0c7kDPVOxYgh2-14" value="&lt;span style=&quot;color: rgb(0, 0, 0); text-align: left;&quot;&gt;阿什拉夫·加尼·艾哈迈德扎伊&lt;/span&gt;" style="rounded=0;whiteSpace=wrap;html=1;fillColor=#f5f5f5;fontColor=#333333;strokeColor=#666666;fontFamily=宋体;fontSize=20;" parent="MMJxIbt0c7kDPVOxYgh2-1" vertex="1">
          <mxGeometry x="70" y="460" width="120" height="70" as="geometry" />
        </mxCell>
        <mxCell id="MMJxIbt0c7kDPVOxYgh2-15" value="&lt;span style=&quot;color: rgb(0, 0, 0); text-align: left;&quot;&gt;扎勒迈·马莫齐·哈利勒扎德&lt;/span&gt;" style="rounded=0;whiteSpace=wrap;html=1;fillColor=#f5f5f5;fontColor=#333333;strokeColor=#666666;fontFamily=宋体;fontSize=20;" parent="MMJxIbt0c7kDPVOxYgh2-1" vertex="1">
          <mxGeometry x="510" y="460" width="120" height="70" as="geometry" />
        </mxCell>
        <mxCell id="MMJxIbt0c7kDPVOxYgh2-16" value="&lt;div style=&quot;text-align: left;&quot;&gt;&lt;span style=&quot;background-color: transparent; text-align: center;&quot;&gt;参与谈判&lt;/span&gt;&lt;span style=&quot;background-color: transparent; color: light-dark(rgb(0, 0, 0), rgb(255, 255, 255));&quot;&gt;,&amp;nbsp;2018-10-09&lt;/span&gt;&lt;/div&gt;" style="text;html=1;align=center;verticalAlign=middle;whiteSpace=wrap;rounded=0;fontFamily=宋体;fontSize=20;fontColor=default;labelBackgroundColor=none;" parent="MMJxIbt0c7kDPVOxYgh2-1" vertex="1">
          <mxGeometry x="150" y="475" width="410" height="60" as="geometry" />
        </mxCell>
        <mxCell id="MMJxIbt0c7kDPVOxYgh2-17" style="edgeStyle=orthogonalEdgeStyle;shape=connector;curved=1;rounded=0;orthogonalLoop=1;jettySize=auto;html=1;strokeColor=#990000;align=center;verticalAlign=middle;fontFamily=宋体;fontSize=20;fontColor=default;labelBackgroundColor=default;startFill=0;endArrow=openThin;exitX=1;exitY=0.5;exitDx=0;exitDy=0;strokeWidth=2;endFill=0;" parent="MMJxIbt0c7kDPVOxYgh2-1" edge="1">
          <mxGeometry relative="1" as="geometry">
            <mxPoint x="190" y="490" as="sourcePoint" />
            <mxPoint x="510" y="490" as="targetPoint" />
            <Array as="points">
              <mxPoint x="190" y="523" />
            </Array>
          </mxGeometry>
        </mxCell>
        <mxCell id="MMJxIbt0c7kDPVOxYgh2-18" value="&lt;font&gt;（1）&lt;/font&gt;" style="text;html=1;align=center;verticalAlign=middle;whiteSpace=wrap;rounded=0;fontFamily=宋体;fontSize=20;fontColor=default;labelBackgroundColor=default;" parent="MMJxIbt0c7kDPVOxYgh2-1" vertex="1">
          <mxGeometry x="30" y="80" width="60" height="30" as="geometry" />
        </mxCell>
        <mxCell id="MMJxIbt0c7kDPVOxYgh2-19" value="&lt;font&gt;（2）&lt;/font&gt;" style="text;html=1;align=center;verticalAlign=middle;whiteSpace=wrap;rounded=0;fontFamily=宋体;fontSize=20;fontColor=default;labelBackgroundColor=default;" parent="MMJxIbt0c7kDPVOxYgh2-1" vertex="1">
          <mxGeometry x="40" y="320" width="60" height="30" as="geometry" />
        </mxCell>
        <mxCell id="LF1CAg8B8bZ3hAe8cxvF-0" value="&lt;div style=&quot;text-align: left;&quot;&gt;&lt;span style=&quot;background-color: transparent;&quot;&gt;商议&lt;/span&gt;&lt;span style=&quot;background-color: transparent; color: light-dark(rgb(0, 0, 0), rgb(255, 255, 255));&quot;&gt;,&amp;nbsp;2018-10-13&lt;/span&gt;&lt;/div&gt;" style="text;html=1;align=center;verticalAlign=middle;whiteSpace=wrap;rounded=0;fontFamily=宋体;fontSize=20;fontColor=default;labelBackgroundColor=none;" parent="MMJxIbt0c7kDPVOxYgh2-1" vertex="1">
          <mxGeometry x="140" y="390" width="410" height="60" as="geometry" />
        </mxCell>
      </root>
    </mxGraphModel>
  </diagram>
  <diagram name="chp4" id="XQLOG2ghwWDixhYMo_kH">
    <mxGraphModel dx="1094" dy="733" grid="1" gridSize="10" guides="1" tooltips="1" connect="1" arrows="1" fold="1" page="1" pageScale="1" pageWidth="827" pageHeight="1169" math="1" shadow="0">
      <root>
        <mxCell id="LVp_z30s46DBfdXow0BJ-0" />
        <mxCell id="LVp_z30s46DBfdXow0BJ-1" parent="LVp_z30s46DBfdXow0BJ-0" />
        <mxCell id="LVp_z30s46DBfdXow0BJ-2" value="&lt;font style=&quot;&quot;&gt;&lt;span style=&quot;font-size: 16px;&quot;&gt;查询：(China,&amp;nbsp;&lt;/span&gt;&lt;font style=&quot;font-size: 16px;&quot;&gt;Express intent to meet or negotiate&lt;/font&gt;&lt;span style=&quot;font-size: 16px;&quot;&gt;, ?, 2014-12-30)&lt;/span&gt;&lt;/font&gt;&lt;div&gt;&lt;font size=&quot;3&quot;&gt;答案：&lt;/font&gt;&lt;span style=&quot;font-size: 16px; background-color: transparent; color: light-dark(rgb(0, 0, 0), rgb(255, 255, 255));&quot;&gt;Angela Merkel&lt;/span&gt;&lt;/div&gt;" style="text;html=1;align=left;verticalAlign=middle;whiteSpace=wrap;rounded=0;fontFamily=Helvetica;fontSize=11;fontColor=default;labelBackgroundColor=none;" parent="LVp_z30s46DBfdXow0BJ-1" vertex="1">
          <mxGeometry x="110" y="80" width="560" height="60" as="geometry" />
        </mxCell>
        <mxCell id="LVp_z30s46DBfdXow0BJ-3" value="&lt;font style=&quot;font-size: 16px;&quot;&gt;&lt;span style=&quot;white-space: pre;&quot; data-slate-fragment=&quot;JTVCJTdCJTIydHlwZSUyMiUzQSUyMnBhcmFncmFwaCUyMiUyQyUyMmNoaWxkcmVuJTIyJTNBJTVCJTdCJTIyaWQlMjIlM0ElMjJWUld4OUFkam16JTIyJTJDJTIycGFyYUlkeCUyMiUzQTAlMkMlMjJzcmMlMjIlM0ElMjJTaWduX2Zvcm1hbF9hZ3JlZW1lbnQlMjIlMkMlMjJkc3QlMjIlM0ElMjIlRTclQUQlQkUlRTclQkQlQjJfJUU2JUFEJUEzJUU1JUJDJThGXyVFNSU4RCU4RiVFOCVBRSVBRSUyMiUyQyUyMm1ldGFkYXRhJTIyJTNBJTIyJTIyJTJDJTIybWF0Y2hlcyUyMiUzQW51bGwlMkMlMjJtZXRhRGF0YSUyMiUzQSU1QiU1RCUyQyUyMnRleHQlMjIlM0ElMjJTaWduX2Zvcm1hbF9hZ3JlZW1lbnQlMjIlN0QlNUQlN0QlNUQ=&quot;&gt;Sign formal agreement&lt;/span&gt;,&amp;nbsp;2014-12-17&lt;/font&gt;" style="text;html=1;align=center;verticalAlign=middle;whiteSpace=wrap;rounded=0;fontFamily=Helvetica;fontSize=11;fontColor=default;labelBackgroundColor=none;" parent="LVp_z30s46DBfdXow0BJ-1" vertex="1">
          <mxGeometry x="150" y="120" width="410" height="60" as="geometry" />
        </mxCell>
        <mxCell id="LVp_z30s46DBfdXow0BJ-4" style="edgeStyle=orthogonalEdgeStyle;shape=connector;curved=1;rounded=0;orthogonalLoop=1;jettySize=auto;html=1;entryX=0;entryY=0.5;entryDx=0;entryDy=0;strokeColor=#990000;align=center;verticalAlign=middle;fontFamily=Helvetica;fontSize=11;fontColor=default;labelBackgroundColor=default;startFill=0;endArrow=openThin;exitX=1;exitY=0.5;exitDx=0;exitDy=0;strokeWidth=2;endFill=0;" parent="LVp_z30s46DBfdXow0BJ-1" source="LVp_z30s46DBfdXow0BJ-6" target="LVp_z30s46DBfdXow0BJ-7" edge="1">
          <mxGeometry relative="1" as="geometry">
            <Array as="points">
              <mxPoint x="190" y="160" />
              <mxPoint x="510" y="160" />
            </Array>
          </mxGeometry>
        </mxCell>
        <mxCell id="LVp_z30s46DBfdXow0BJ-6" value="&lt;span style=&quot;color: rgb(0, 0, 0); text-align: left;&quot;&gt;&lt;font style=&quot;font-size: 16px;&quot;&gt;François Hollande&lt;/font&gt;&lt;/span&gt;" style="rounded=0;whiteSpace=wrap;html=1;fillColor=#f5f5f5;fontColor=#333333;strokeColor=#666666;" parent="LVp_z30s46DBfdXow0BJ-1" vertex="1">
          <mxGeometry x="70" y="200" width="120" height="60" as="geometry" />
        </mxCell>
        <mxCell id="LVp_z30s46DBfdXow0BJ-7" value="&lt;span style=&quot;color: rgb(0, 0, 0); text-align: left;&quot;&gt;&lt;font style=&quot;font-size: 16px;&quot;&gt;Angela Merkel&lt;/font&gt;&lt;/span&gt;" style="rounded=0;whiteSpace=wrap;html=1;fillColor=#f5f5f5;fontColor=#333333;strokeColor=#666666;" parent="LVp_z30s46DBfdXow0BJ-1" vertex="1">
          <mxGeometry x="510" y="200" width="120" height="60" as="geometry" />
        </mxCell>
        <mxCell id="LVp_z30s46DBfdXow0BJ-8" value="&lt;font style=&quot;font-size: 16px;&quot;&gt;&lt;span style=&quot;white-space: pre;&quot; data-slate-fragment=&quot;JTVCJTdCJTIydHlwZSUyMiUzQSUyMnBhcmFncmFwaCUyMiUyQyUyMmNoaWxkcmVuJTIyJTNBJTVCJTdCJTIyaWQlMjIlM0ElMjJlYllrdnYyYmxCJTIyJTJDJTIycGFyYUlkeCUyMiUzQTAlMkMlMjJzcmMlMjIlM0ElMjJFeHByZXNzJTIwaW50ZW50JTIwdG8lMjBjb29wZXJhdGUlMjIlMkMlMjJkc3QlMjIlM0ElMjIlRTglQTElQTglRTglQkUlQkUlRTUlOTAlODglRTQlQkQlOUMlRTYlODQlOEYlRTUlOTAlOTElMjIlMkMlMjJtZXRhZGF0YSUyMiUzQSUyMiUyMiUyQyUyMm1hdGNoZXMlMjIlM0FudWxsJTJDJTIybWV0YURhdGElMjIlM0ElNUIlNUQlMkMlMjJ0ZXh0JTIyJTNBJTIyRXhwcmVzcyUyMGludGVudCUyMHRvJTIwY29vcGVyYXRlJTIyJTdEJTVEJTdEJTVE&quot;&gt;Express intent to cooperate&lt;/span&gt;,&amp;nbsp;2014-12-16&lt;/font&gt;" style="text;html=1;align=center;verticalAlign=middle;whiteSpace=wrap;rounded=0;fontFamily=Helvetica;fontSize=11;fontColor=default;labelBackgroundColor=none;" parent="LVp_z30s46DBfdXow0BJ-1" vertex="1">
          <mxGeometry x="150" y="160" width="410" height="60" as="geometry" />
        </mxCell>
        <mxCell id="LVp_z30s46DBfdXow0BJ-9" style="edgeStyle=orthogonalEdgeStyle;shape=connector;curved=1;rounded=0;orthogonalLoop=1;jettySize=auto;html=1;strokeColor=#990000;align=center;verticalAlign=middle;fontFamily=Helvetica;fontSize=11;fontColor=default;labelBackgroundColor=default;startFill=0;endArrow=openThin;exitX=1;exitY=0.5;exitDx=0;exitDy=0;strokeWidth=2;endFill=0;" parent="LVp_z30s46DBfdXow0BJ-1" source="LVp_z30s46DBfdXow0BJ-6" edge="1">
          <mxGeometry relative="1" as="geometry">
            <mxPoint x="510" y="230" as="targetPoint" />
            <Array as="points">
              <mxPoint x="190" y="250" />
              <mxPoint x="510" y="250" />
            </Array>
          </mxGeometry>
        </mxCell>
        <mxCell id="LVp_z30s46DBfdXow0BJ-10" value="&lt;font style=&quot;font-size: 16px;&quot;&gt;&lt;span style=&quot;text-align: left;&quot;&gt;&amp;nbsp;&lt;/span&gt;&lt;span style=&quot;white-space: pre;&quot; data-slate-fragment=&quot;JTVCJTdCJTIydHlwZSUyMiUzQSUyMnBhcmFncmFwaCUyMiUyQyUyMmNoaWxkcmVuJTIyJTNBJTVCJTdCJTIyaWQlMjIlM0ElMjJCb01sNnB5T01WJTIyJTJDJTIycGFyYUlkeCUyMiUzQTAlMkMlMjJzcmMlMjIlM0ElMjJFbmdhZ2VfaW5fbmVnb3RpYXRpb24lMjIlMkMlMjJkc3QlMjIlM0ElMjIlRTUlOEYlODIlRTQlQjglOEVfJUU4JUIwJTg4JUU1JTg4JUE0JTIyJTJDJTIybWV0YWRhdGElMjIlM0ElMjIlMjIlMkMlMjJtYXRjaGVzJTIyJTNBbnVsbCUyQyUyMm1ldGFEYXRhJTIyJTNBJTVCJTVEJTJDJTIydGV4dCUyMiUzQSUyMkVuZ2FnZV9pbl9uZWdvdGlhdGlvbiUyMiU3RCU1RCU3RCU1RA==&quot;&gt;Engage in negotiation&lt;/span&gt;,&amp;nbsp;2014-12-16&lt;/font&gt;" style="text;html=1;align=center;verticalAlign=middle;whiteSpace=wrap;rounded=0;fontFamily=Helvetica;fontSize=11;fontColor=default;labelBackgroundColor=none;" parent="LVp_z30s46DBfdXow0BJ-1" vertex="1">
          <mxGeometry x="150" y="260" width="410" height="60" as="geometry" />
        </mxCell>
        <mxCell id="LVp_z30s46DBfdXow0BJ-11" value="&lt;font style=&quot;font-size: 16px;&quot;&gt;查询：(Iran, Arrest detain, ?, 2014-12-30)&lt;/font&gt;&lt;div&gt;&lt;font size=&quot;3&quot;&gt;答案：&lt;/font&gt;&lt;span style=&quot;background-color: transparent;&quot;&gt;&lt;font size=&quot;3&quot;&gt;Central Intelligence Agency&lt;/font&gt;&lt;/span&gt;&lt;/div&gt;" style="text;html=1;align=left;verticalAlign=middle;whiteSpace=wrap;rounded=0;fontFamily=Helvetica;fontSize=11;fontColor=default;labelBackgroundColor=none;" parent="LVp_z30s46DBfdXow0BJ-1" vertex="1">
          <mxGeometry x="120" y="400" width="560" height="60" as="geometry" />
        </mxCell>
        <mxCell id="LVp_z30s46DBfdXow0BJ-18" value="&lt;font style=&quot;font-size: 16px;&quot;&gt;（1）&lt;/font&gt;" style="text;html=1;align=center;verticalAlign=middle;whiteSpace=wrap;rounded=0;fontFamily=Helvetica;fontSize=11;fontColor=default;labelBackgroundColor=default;" parent="LVp_z30s46DBfdXow0BJ-1" vertex="1">
          <mxGeometry x="30" y="80" width="60" height="30" as="geometry" />
        </mxCell>
        <mxCell id="LVp_z30s46DBfdXow0BJ-19" value="&lt;font style=&quot;font-size: 16px;&quot;&gt;（2）&lt;/font&gt;" style="text;html=1;align=center;verticalAlign=middle;whiteSpace=wrap;rounded=0;fontFamily=Helvetica;fontSize=11;fontColor=default;labelBackgroundColor=default;" parent="LVp_z30s46DBfdXow0BJ-1" vertex="1">
          <mxGeometry x="40" y="390" width="60" height="30" as="geometry" />
        </mxCell>
        <mxCell id="JW4l-kRmiTtQ6vi-nHkg-5" value="&lt;font style=&quot;font-size: 16px;&quot;&gt;&lt;span style=&quot;white-space: pre;&quot; data-slate-fragment=&quot;JTVCJTdCJTIydHlwZSUyMiUzQSUyMnBhcmFncmFwaCUyMiUyQyUyMmNoaWxkcmVuJTIyJTNBJTVCJTdCJTIyaWQlMjIlM0ElMjJlYllrdnYyYmxCJTIyJTJDJTIycGFyYUlkeCUyMiUzQTAlMkMlMjJzcmMlMjIlM0ElMjJFeHByZXNzJTIwaW50ZW50JTIwdG8lMjBjb29wZXJhdGUlMjIlMkMlMjJkc3QlMjIlM0ElMjIlRTglQTElQTglRTglQkUlQkUlRTUlOTAlODglRTQlQkQlOUMlRTYlODQlOEYlRTUlOTAlOTElMjIlMkMlMjJtZXRhZGF0YSUyMiUzQSUyMiUyMiUyQyUyMm1hdGNoZXMlMjIlM0FudWxsJTJDJTIybWV0YURhdGElMjIlM0ElNUIlNUQlMkMlMjJ0ZXh0JTIyJTNBJTIyRXhwcmVzcyUyMGludGVudCUyMHRvJTIwY29vcGVyYXRlJTIyJTdEJTVEJTdEJTVE&quot;&gt;Consult&lt;/span&gt;,&amp;nbsp;2014-12-12&lt;/font&gt;" style="text;html=1;align=center;verticalAlign=middle;whiteSpace=wrap;rounded=0;fontFamily=Helvetica;fontSize=11;fontColor=default;labelBackgroundColor=none;" parent="LVp_z30s46DBfdXow0BJ-1" vertex="1">
          <mxGeometry x="140" y="210" width="410" height="60" as="geometry" />
        </mxCell>
        <mxCell id="JW4l-kRmiTtQ6vi-nHkg-6" style="edgeStyle=orthogonalEdgeStyle;shape=connector;curved=1;rounded=0;orthogonalLoop=1;jettySize=auto;html=1;entryX=0;entryY=0.5;entryDx=0;entryDy=0;strokeColor=#990000;align=center;verticalAlign=middle;fontFamily=Helvetica;fontSize=11;fontColor=default;labelBackgroundColor=default;startFill=0;endArrow=openThin;strokeWidth=2;endFill=0;" parent="LVp_z30s46DBfdXow0BJ-1" edge="1">
          <mxGeometry relative="1" as="geometry">
            <Array as="points">
              <mxPoint x="190" y="200" />
              <mxPoint x="510" y="200" />
            </Array>
            <mxPoint x="190" y="230" as="sourcePoint" />
            <mxPoint x="510" y="240" as="targetPoint" />
          </mxGeometry>
        </mxCell>
        <mxCell id="JW4l-kRmiTtQ6vi-nHkg-7" style="edgeStyle=orthogonalEdgeStyle;shape=connector;curved=1;rounded=0;orthogonalLoop=1;jettySize=auto;html=1;strokeColor=#990000;align=center;verticalAlign=middle;fontFamily=Helvetica;fontSize=11;fontColor=default;labelBackgroundColor=default;startFill=0;endArrow=openThin;strokeWidth=2;endFill=0;" parent="LVp_z30s46DBfdXow0BJ-1" edge="1">
          <mxGeometry relative="1" as="geometry">
            <mxPoint x="505" y="240" as="targetPoint" />
            <Array as="points">
              <mxPoint x="190" y="280" />
              <mxPoint x="505" y="280" />
            </Array>
            <mxPoint x="190" y="230" as="sourcePoint" />
          </mxGeometry>
        </mxCell>
        <mxCell id="xKqpmnfEqYTpzgQ-y-Jy-7" value="&lt;div style=&quot;text-align: left;&quot;&gt;&lt;span style=&quot;font-size: 16px; background-color: transparent; color: light-dark(rgb(0, 0, 0), rgb(255, 255, 255));&quot;&gt;Consult, 2014-12-17&lt;/span&gt;&lt;/div&gt;" style="text;html=1;align=center;verticalAlign=middle;whiteSpace=wrap;rounded=0;fontFamily=Helvetica;fontSize=11;fontColor=default;labelBackgroundColor=none;" vertex="1" parent="LVp_z30s46DBfdXow0BJ-1">
          <mxGeometry x="367.5" y="460" width="95" height="80" as="geometry" />
        </mxCell>
        <mxCell id="xKqpmnfEqYTpzgQ-y-Jy-16" value="&lt;div style=&quot;text-align: left;&quot;&gt;&lt;br&gt;&lt;/div&gt;" style="text;html=1;align=center;verticalAlign=middle;whiteSpace=wrap;rounded=0;fontFamily=Helvetica;fontSize=11;fontColor=default;labelBackgroundColor=none;" vertex="1" parent="LVp_z30s46DBfdXow0BJ-1">
          <mxGeometry x="115" y="450" width="90" height="60" as="geometry" />
        </mxCell>
        <mxCell id="xKqpmnfEqYTpzgQ-y-Jy-29" style="edgeStyle=orthogonalEdgeStyle;shape=connector;curved=1;rounded=0;orthogonalLoop=1;jettySize=auto;html=1;entryX=0;entryY=0.5;entryDx=0;entryDy=0;strokeColor=#990000;strokeWidth=2;align=center;verticalAlign=middle;fontFamily=Helvetica;fontSize=11;fontColor=default;labelBackgroundColor=default;startFill=0;endArrow=openThin;endFill=0;" edge="1" parent="LVp_z30s46DBfdXow0BJ-1" source="xKqpmnfEqYTpzgQ-y-Jy-18" target="xKqpmnfEqYTpzgQ-y-Jy-23">
          <mxGeometry relative="1" as="geometry">
            <Array as="points">
              <mxPoint x="127.5" y="600" />
              <mxPoint x="287.5" y="600" />
            </Array>
          </mxGeometry>
        </mxCell>
        <mxCell id="xKqpmnfEqYTpzgQ-y-Jy-31" style="edgeStyle=orthogonalEdgeStyle;shape=connector;curved=1;rounded=0;orthogonalLoop=1;jettySize=auto;html=1;entryX=0;entryY=0.5;entryDx=0;entryDy=0;strokeColor=#990000;strokeWidth=2;align=center;verticalAlign=middle;fontFamily=Helvetica;fontSize=11;fontColor=default;labelBackgroundColor=default;startFill=0;endArrow=openThin;endFill=0;" edge="1" parent="LVp_z30s46DBfdXow0BJ-1" source="xKqpmnfEqYTpzgQ-y-Jy-18" target="xKqpmnfEqYTpzgQ-y-Jy-23">
          <mxGeometry relative="1" as="geometry">
            <Array as="points">
              <mxPoint x="127.5" y="510" />
              <mxPoint x="287.5" y="510" />
            </Array>
          </mxGeometry>
        </mxCell>
        <mxCell id="xKqpmnfEqYTpzgQ-y-Jy-32" style="edgeStyle=orthogonalEdgeStyle;shape=connector;curved=1;rounded=0;orthogonalLoop=1;jettySize=auto;html=1;entryX=0;entryY=0.5;entryDx=0;entryDy=0;strokeColor=#990000;strokeWidth=2;align=center;verticalAlign=middle;fontFamily=Helvetica;fontSize=11;fontColor=default;labelBackgroundColor=default;startFill=0;endArrow=openThin;endFill=0;" edge="1" parent="LVp_z30s46DBfdXow0BJ-1" source="xKqpmnfEqYTpzgQ-y-Jy-18" target="xKqpmnfEqYTpzgQ-y-Jy-23">
          <mxGeometry relative="1" as="geometry" />
        </mxCell>
        <mxCell id="xKqpmnfEqYTpzgQ-y-Jy-18" value="&lt;span style=&quot;color: rgb(0, 0, 0); text-align: left;&quot;&gt;&lt;font style=&quot;font-size: 16px;&quot;&gt;Iran&lt;/font&gt;&lt;/span&gt;" style="rounded=0;whiteSpace=wrap;html=1;fillColor=#f5f5f5;fontColor=#333333;strokeColor=#666666;" vertex="1" parent="LVp_z30s46DBfdXow0BJ-1">
          <mxGeometry x="30" y="520" width="90" height="60" as="geometry" />
        </mxCell>
        <mxCell id="xKqpmnfEqYTpzgQ-y-Jy-19" value="&lt;span style=&quot;color: rgb(0, 0, 0); text-align: left;&quot;&gt;&lt;font style=&quot;font-size: 16px;&quot;&gt;Central Intelligence Agency&lt;/font&gt;&lt;/span&gt;" style="rounded=0;whiteSpace=wrap;html=1;fillColor=#f5f5f5;fontColor=#333333;strokeColor=#666666;" vertex="1" parent="LVp_z30s46DBfdXow0BJ-1">
          <mxGeometry x="600" y="520" width="90" height="60" as="geometry" />
        </mxCell>
        <mxCell id="xKqpmnfEqYTpzgQ-y-Jy-20" value="&lt;div style=&quot;text-align: left;&quot;&gt;&lt;span style=&quot;background-color: transparent; font-size: 16px;&quot;&gt;Host a visit&lt;/span&gt;&lt;span style=&quot;font-size: 16px; background-color: transparent; color: light-dark(rgb(0, 0, 0), rgb(255, 255, 255));&quot;&gt;,&amp;nbsp;2014-12-07&lt;/span&gt;&lt;/div&gt;" style="text;html=1;align=center;verticalAlign=middle;whiteSpace=wrap;rounded=0;fontFamily=Helvetica;fontSize=11;fontColor=default;labelBackgroundColor=none;" vertex="1" parent="LVp_z30s46DBfdXow0BJ-1">
          <mxGeometry x="150" y="510" width="132.5" height="60" as="geometry" />
        </mxCell>
        <mxCell id="xKqpmnfEqYTpzgQ-y-Jy-35" style="edgeStyle=orthogonalEdgeStyle;shape=connector;curved=1;rounded=0;orthogonalLoop=1;jettySize=auto;html=1;entryX=0;entryY=0.5;entryDx=0;entryDy=0;strokeColor=#990000;strokeWidth=2;align=center;verticalAlign=middle;fontFamily=Helvetica;fontSize=11;fontColor=default;labelBackgroundColor=default;startFill=0;endArrow=openThin;endFill=0;" edge="1" parent="LVp_z30s46DBfdXow0BJ-1" source="xKqpmnfEqYTpzgQ-y-Jy-23" target="xKqpmnfEqYTpzgQ-y-Jy-26">
          <mxGeometry relative="1" as="geometry" />
        </mxCell>
        <mxCell id="xKqpmnfEqYTpzgQ-y-Jy-23" value="&lt;span style=&quot;white-space: pre;&quot; data-slate-fragment=&quot;JTVCJTdCJTIydHlwZSUyMiUzQSUyMnBhcmFncmFwaCUyMiUyQyUyMmNoaWxkcmVuJTIyJTNBJTVCJTdCJTIyaWQlMjIlM0ElMjJCWm9rNHFqUmplJTIyJTJDJTIycGFyYUlkeCUyMiUzQTAlMkMlMjJzcmMlMjIlM0ElMjJBZmdoYW5pc3RhbiUyMiUyQyUyMmRzdCUyMiUzQSUyMiVFOSU5OCVCRiVFNSVBRiU4QyVFNiVCMSU5NyUyMiUyQyUyMm1ldGFkYXRhJTIyJTNBJTIyJTIyJTJDJTIybWF0Y2hlcyUyMiUzQW51bGwlMkMlMjJtZXRhRGF0YSUyMiUzQSU1QiU1RCUyQyUyMnRleHQlMjIlM0ElMjJBZmdoYW5pc3RhbiUyMiU3RCU1RCU3RCU1RA==&quot;&gt;&lt;font style=&quot;font-size: 16px;&quot;&gt;Afghanistan&lt;/font&gt;&lt;/span&gt;" style="rounded=0;whiteSpace=wrap;html=1;fillColor=#f5f5f5;fontColor=#333333;strokeColor=#666666;" vertex="1" parent="LVp_z30s46DBfdXow0BJ-1">
          <mxGeometry x="287.5" y="520" width="90" height="60" as="geometry" />
        </mxCell>
        <mxCell id="xKqpmnfEqYTpzgQ-y-Jy-24" value="&lt;div style=&quot;text-align: left;&quot;&gt;&lt;span style=&quot;background-color: transparent; font-size: 16px;&quot;&gt;Consult&lt;/span&gt;&lt;span style=&quot;font-size: 16px; background-color: transparent; color: light-dark(rgb(0, 0, 0), rgb(255, 255, 255));&quot;&gt;,&amp;nbsp;2014-12-11&lt;/span&gt;&lt;/div&gt;" style="text;html=1;align=center;verticalAlign=middle;whiteSpace=wrap;rounded=0;fontFamily=Helvetica;fontSize=11;fontColor=default;labelBackgroundColor=none;" vertex="1" parent="LVp_z30s46DBfdXow0BJ-1">
          <mxGeometry x="127.5" y="460" width="160" height="60" as="geometry" />
        </mxCell>
        <mxCell id="xKqpmnfEqYTpzgQ-y-Jy-36" style="edgeStyle=orthogonalEdgeStyle;shape=connector;curved=1;rounded=0;orthogonalLoop=1;jettySize=auto;html=1;entryX=0;entryY=0.5;entryDx=0;entryDy=0;strokeColor=#990000;strokeWidth=2;align=center;verticalAlign=middle;fontFamily=Helvetica;fontSize=11;fontColor=default;labelBackgroundColor=default;startFill=0;endArrow=openThin;endFill=0;" edge="1" parent="LVp_z30s46DBfdXow0BJ-1" source="xKqpmnfEqYTpzgQ-y-Jy-26" target="xKqpmnfEqYTpzgQ-y-Jy-19">
          <mxGeometry relative="1" as="geometry" />
        </mxCell>
        <mxCell id="xKqpmnfEqYTpzgQ-y-Jy-26" value="&lt;span style=&quot;color: rgb(0, 0, 0); text-align: left;&quot;&gt;&lt;font style=&quot;font-size: 16px;&quot;&gt;Head of Government (Afghanistan)&lt;/font&gt;&lt;/span&gt;" style="rounded=0;whiteSpace=wrap;html=1;fillColor=#f5f5f5;fontColor=#333333;strokeColor=#666666;labelBackgroundColor=none;" vertex="1" parent="LVp_z30s46DBfdXow0BJ-1">
          <mxGeometry x="442.5" y="520" width="90" height="60" as="geometry" />
        </mxCell>
        <mxCell id="xKqpmnfEqYTpzgQ-y-Jy-27" value="&lt;div style=&quot;text-align: left;&quot;&gt;&lt;span style=&quot;background-color: transparent; text-align: center; font-size: 16px;&quot;&gt;Criticize or denounce&lt;/span&gt;&lt;span style=&quot;font-size: 16px; background-color: transparent; color: light-dark(rgb(0, 0, 0), rgb(255, 255, 255));&quot;&gt;, 2014-12-10&lt;/span&gt;&lt;/div&gt;" style="text;html=1;align=center;verticalAlign=middle;whiteSpace=wrap;rounded=0;fontFamily=Helvetica;fontSize=11;fontColor=default;labelBackgroundColor=none;" vertex="1" parent="LVp_z30s46DBfdXow0BJ-1">
          <mxGeometry x="510" y="467.5" width="160" height="65" as="geometry" />
        </mxCell>
        <mxCell id="xKqpmnfEqYTpzgQ-y-Jy-28" value="&lt;div style=&quot;text-align: left;&quot;&gt;&lt;span style=&quot;background-color: transparent; text-align: center; font-size: 16px;&quot;&gt;Sign formal agreement&lt;/span&gt;&lt;span style=&quot;font-size: 16px; background-color: transparent; color: light-dark(rgb(0, 0, 0), rgb(255, 255, 255));&quot;&gt;,&lt;/span&gt;&lt;/div&gt;&lt;div style=&quot;text-align: left;&quot;&gt;&lt;span style=&quot;font-size: 16px; background-color: transparent; color: light-dark(rgb(0, 0, 0), rgb(255, 255, 255));&quot;&gt;&amp;nbsp;2014-12-15&lt;/span&gt;&lt;/div&gt;" style="text;html=1;align=center;verticalAlign=middle;whiteSpace=wrap;rounded=0;fontFamily=Helvetica;fontSize=11;fontColor=default;labelBackgroundColor=none;" vertex="1" parent="LVp_z30s46DBfdXow0BJ-1">
          <mxGeometry x="96.25" y="570" width="240" height="60" as="geometry" />
        </mxCell>
      </root>
    </mxGraphModel>
  </diagram>
  <diagram name="chp4 的中文版" id="acEAIZwI95w-mu0WgJ2J">
    <mxGraphModel dx="1215" dy="753" grid="1" gridSize="10" guides="1" tooltips="1" connect="1" arrows="1" fold="1" page="1" pageScale="1" pageWidth="827" pageHeight="1169" math="1" shadow="0">
      <root>
        <mxCell id="bjs6O7wamHotFaDu_ETg-0" />
        <mxCell id="bjs6O7wamHotFaDu_ETg-1" parent="bjs6O7wamHotFaDu_ETg-0" />
        <mxCell id="bjs6O7wamHotFaDu_ETg-2" value="&lt;font&gt;&lt;span&gt;查询：(弗朗索瓦·奥朗德,&amp;nbsp;&lt;/span&gt;&lt;font&gt;表达会面或谈判的意愿&lt;/font&gt;&lt;span&gt;, ?, 2014-12-30)&lt;/span&gt;&lt;/font&gt;&lt;div&gt;&lt;font&gt;答案：&lt;/font&gt;&lt;span style=&quot;background-color: transparent;&quot;&gt;安格拉·默克尔&lt;/span&gt;&lt;/div&gt;" style="text;html=1;align=left;verticalAlign=middle;whiteSpace=wrap;rounded=0;fontFamily=宋体;fontSize=20;fontColor=default;labelBackgroundColor=none;" parent="bjs6O7wamHotFaDu_ETg-1" vertex="1">
          <mxGeometry x="110" y="65" width="630" height="60" as="geometry" />
        </mxCell>
        <mxCell id="bjs6O7wamHotFaDu_ETg-3" value="&lt;font&gt;&lt;span style=&quot;white-space: pre;&quot; data-slate-fragment=&quot;JTVCJTdCJTIydHlwZSUyMiUzQSUyMnBhcmFncmFwaCUyMiUyQyUyMmNoaWxkcmVuJTIyJTNBJTVCJTdCJTIyaWQlMjIlM0ElMjJWUld4OUFkam16JTIyJTJDJTIycGFyYUlkeCUyMiUzQTAlMkMlMjJzcmMlMjIlM0ElMjJTaWduX2Zvcm1hbF9hZ3JlZW1lbnQlMjIlMkMlMjJkc3QlMjIlM0ElMjIlRTclQUQlQkUlRTclQkQlQjJfJUU2JUFEJUEzJUU1JUJDJThGXyVFNSU4RCU4RiVFOCVBRSVBRSUyMiUyQyUyMm1ldGFkYXRhJTIyJTNBJTIyJTIyJTJDJTIybWF0Y2hlcyUyMiUzQW51bGwlMkMlMjJtZXRhRGF0YSUyMiUzQSU1QiU1RCUyQyUyMnRleHQlMjIlM0ElMjJTaWduX2Zvcm1hbF9hZ3JlZW1lbnQlMjIlN0QlNUQlN0QlNUQ=&quot;&gt;签署正式协议&lt;/span&gt;,&amp;nbsp;2014-12-17&lt;/font&gt;" style="text;html=1;align=center;verticalAlign=middle;whiteSpace=wrap;rounded=0;fontFamily=宋体;fontSize=20;fontColor=default;labelBackgroundColor=none;" parent="bjs6O7wamHotFaDu_ETg-1" vertex="1">
          <mxGeometry x="150" y="120" width="410" height="60" as="geometry" />
        </mxCell>
        <mxCell id="bjs6O7wamHotFaDu_ETg-4" style="edgeStyle=orthogonalEdgeStyle;shape=connector;curved=1;rounded=0;orthogonalLoop=1;jettySize=auto;html=1;entryX=0;entryY=0.5;entryDx=0;entryDy=0;strokeColor=#990000;align=center;verticalAlign=middle;fontFamily=宋体;fontSize=20;fontColor=default;labelBackgroundColor=default;startFill=0;endArrow=openThin;exitX=1;exitY=0.5;exitDx=0;exitDy=0;strokeWidth=2;endFill=0;" parent="bjs6O7wamHotFaDu_ETg-1" source="bjs6O7wamHotFaDu_ETg-5" target="bjs6O7wamHotFaDu_ETg-6" edge="1">
          <mxGeometry relative="1" as="geometry">
            <Array as="points">
              <mxPoint x="190" y="160" />
              <mxPoint x="550" y="160" />
            </Array>
          </mxGeometry>
        </mxCell>
        <mxCell id="bjs6O7wamHotFaDu_ETg-5" value="&lt;span style=&quot;color: rgb(0, 0, 0); text-align: left;&quot;&gt;&lt;font&gt;弗朗索瓦·奥朗德&lt;/font&gt;&lt;/span&gt;" style="rounded=0;whiteSpace=wrap;html=1;fillColor=#f5f5f5;fontColor=#333333;strokeColor=#666666;fontFamily=宋体;fontSize=20;" parent="bjs6O7wamHotFaDu_ETg-1" vertex="1">
          <mxGeometry x="70" y="200" width="120" height="60" as="geometry" />
        </mxCell>
        <mxCell id="bjs6O7wamHotFaDu_ETg-6" value="&lt;span style=&quot;color: rgb(0, 0, 0); text-align: left;&quot;&gt;安格拉·默克尔&lt;/span&gt;" style="rounded=0;whiteSpace=wrap;html=1;fillColor=#f5f5f5;fontColor=#333333;strokeColor=#666666;fontFamily=宋体;fontSize=20;" parent="bjs6O7wamHotFaDu_ETg-1" vertex="1">
          <mxGeometry x="550" y="200" width="120" height="60" as="geometry" />
        </mxCell>
        <mxCell id="bjs6O7wamHotFaDu_ETg-7" value="&lt;font&gt;表达合作意向,&amp;nbsp;2014-12-16&lt;/font&gt;" style="text;html=1;align=center;verticalAlign=middle;whiteSpace=wrap;rounded=0;fontFamily=宋体;fontSize=20;fontColor=default;labelBackgroundColor=none;" parent="bjs6O7wamHotFaDu_ETg-1" vertex="1">
          <mxGeometry x="150" y="160" width="410" height="60" as="geometry" />
        </mxCell>
        <mxCell id="bjs6O7wamHotFaDu_ETg-8" style="edgeStyle=orthogonalEdgeStyle;shape=connector;curved=1;rounded=0;orthogonalLoop=1;jettySize=auto;html=1;strokeColor=#990000;align=center;verticalAlign=middle;fontFamily=宋体;fontSize=20;fontColor=default;labelBackgroundColor=default;startFill=0;endArrow=openThin;strokeWidth=2;endFill=0;" parent="bjs6O7wamHotFaDu_ETg-1" edge="1">
          <mxGeometry relative="1" as="geometry">
            <mxPoint x="550" y="230" as="targetPoint" />
            <Array as="points">
              <mxPoint x="190" y="250" />
              <mxPoint x="550" y="250" />
            </Array>
            <mxPoint x="190" y="230" as="sourcePoint" />
          </mxGeometry>
        </mxCell>
        <mxCell id="bjs6O7wamHotFaDu_ETg-9" value="&lt;font&gt;&lt;span style=&quot;text-align: left;&quot;&gt;&amp;nbsp;&lt;/span&gt;&lt;span style=&quot;white-space: pre;&quot;&gt;参与谈判&lt;/span&gt;&lt;span&gt;,&amp;nbsp;2014-12-16&lt;/span&gt;&lt;/font&gt;" style="text;html=1;align=center;verticalAlign=middle;whiteSpace=wrap;rounded=0;fontFamily=宋体;fontSize=20;fontColor=default;labelBackgroundColor=none;" parent="bjs6O7wamHotFaDu_ETg-1" vertex="1">
          <mxGeometry x="141.25" y="240" width="410" height="60" as="geometry" />
        </mxCell>
        <mxCell id="bjs6O7wamHotFaDu_ETg-10" value="&lt;font&gt;查询：(伊朗, 逮捕拘留或提起法律诉讼, ?, 2014-12-30)&lt;/font&gt;&lt;div&gt;&lt;font&gt;答案：&lt;/font&gt;&lt;span style=&quot;background-color: transparent;&quot;&gt;&lt;font&gt;中央情报局&lt;/font&gt;&lt;/span&gt;&lt;/div&gt;" style="text;html=1;align=left;verticalAlign=middle;whiteSpace=wrap;rounded=0;fontFamily=宋体;fontSize=20;fontColor=default;labelBackgroundColor=none;" parent="bjs6O7wamHotFaDu_ETg-1" vertex="1">
          <mxGeometry x="120" y="350" width="560" height="60" as="geometry" />
        </mxCell>
        <mxCell id="bjs6O7wamHotFaDu_ETg-11" value="&lt;font&gt;（1）&lt;/font&gt;" style="text;html=1;align=center;verticalAlign=middle;whiteSpace=wrap;rounded=0;fontFamily=宋体;fontSize=20;fontColor=default;labelBackgroundColor=default;" parent="bjs6O7wamHotFaDu_ETg-1" vertex="1">
          <mxGeometry x="30" y="70" width="60" height="30" as="geometry" />
        </mxCell>
        <mxCell id="bjs6O7wamHotFaDu_ETg-12" value="&lt;font&gt;（2）&lt;/font&gt;" style="text;html=1;align=center;verticalAlign=middle;whiteSpace=wrap;rounded=0;fontFamily=宋体;fontSize=20;fontColor=default;labelBackgroundColor=default;" parent="bjs6O7wamHotFaDu_ETg-1" vertex="1">
          <mxGeometry x="30" y="350" width="60" height="30" as="geometry" />
        </mxCell>
        <mxCell id="bjs6O7wamHotFaDu_ETg-13" value="&lt;font&gt;&lt;span style=&quot;white-space: pre;&quot; data-slate-fragment=&quot;JTVCJTdCJTIydHlwZSUyMiUzQSUyMnBhcmFncmFwaCUyMiUyQyUyMmNoaWxkcmVuJTIyJTNBJTVCJTdCJTIyaWQlMjIlM0ElMjJlYllrdnYyYmxCJTIyJTJDJTIycGFyYUlkeCUyMiUzQTAlMkMlMjJzcmMlMjIlM0ElMjJFeHByZXNzJTIwaW50ZW50JTIwdG8lMjBjb29wZXJhdGUlMjIlMkMlMjJkc3QlMjIlM0ElMjIlRTglQTElQTglRTglQkUlQkUlRTUlOTAlODglRTQlQkQlOUMlRTYlODQlOEYlRTUlOTAlOTElMjIlMkMlMjJtZXRhZGF0YSUyMiUzQSUyMiUyMiUyQyUyMm1hdGNoZXMlMjIlM0FudWxsJTJDJTIybWV0YURhdGElMjIlM0ElNUIlNUQlMkMlMjJ0ZXh0JTIyJTNBJTIyRXhwcmVzcyUyMGludGVudCUyMHRvJTIwY29vcGVyYXRlJTIyJTdEJTVEJTdEJTVE&quot;&gt;商议&lt;/span&gt;,&amp;nbsp;2014-12-12&lt;/font&gt;" style="text;html=1;align=center;verticalAlign=middle;whiteSpace=wrap;rounded=0;fontFamily=宋体;fontSize=20;fontColor=default;labelBackgroundColor=none;" parent="bjs6O7wamHotFaDu_ETg-1" vertex="1">
          <mxGeometry x="150" y="200" width="410" height="60" as="geometry" />
        </mxCell>
        <mxCell id="bjs6O7wamHotFaDu_ETg-14" style="edgeStyle=orthogonalEdgeStyle;shape=connector;curved=1;rounded=0;orthogonalLoop=1;jettySize=auto;html=1;strokeColor=#990000;align=center;verticalAlign=middle;fontFamily=宋体;fontSize=20;fontColor=default;labelBackgroundColor=default;startFill=0;endArrow=openThin;strokeWidth=2;endFill=0;" parent="bjs6O7wamHotFaDu_ETg-1" edge="1">
          <mxGeometry relative="1" as="geometry">
            <Array as="points">
              <mxPoint x="190" y="200" />
              <mxPoint x="550" y="200" />
            </Array>
            <mxPoint x="190" y="230" as="sourcePoint" />
            <mxPoint x="550" y="230" as="targetPoint" />
          </mxGeometry>
        </mxCell>
        <mxCell id="bjs6O7wamHotFaDu_ETg-15" style="edgeStyle=orthogonalEdgeStyle;shape=connector;curved=1;rounded=0;orthogonalLoop=1;jettySize=auto;html=1;strokeColor=#990000;align=center;verticalAlign=middle;fontFamily=宋体;fontSize=20;fontColor=default;labelBackgroundColor=default;startFill=0;endArrow=openThin;strokeWidth=2;endFill=0;entryX=0;entryY=0.75;entryDx=0;entryDy=0;" parent="bjs6O7wamHotFaDu_ETg-1" edge="1" target="bjs6O7wamHotFaDu_ETg-6">
          <mxGeometry relative="1" as="geometry">
            <mxPoint x="562" y="314" as="targetPoint" />
            <Array as="points">
              <mxPoint x="190" y="290" />
              <mxPoint x="550" y="290" />
            </Array>
            <mxPoint x="190" y="230" as="sourcePoint" />
          </mxGeometry>
        </mxCell>
        <mxCell id="bjs6O7wamHotFaDu_ETg-16" value="&lt;div style=&quot;text-align: left;&quot;&gt;&lt;span style=&quot;background-color: transparent; color: light-dark(rgb(0, 0, 0), rgb(255, 255, 255));&quot;&gt;商议,&lt;/span&gt;&lt;/div&gt;&lt;div style=&quot;text-align: left;&quot;&gt;&lt;span style=&quot;background-color: transparent; color: light-dark(rgb(0, 0, 0), rgb(255, 255, 255));&quot;&gt;2014-12-17&lt;/span&gt;&lt;/div&gt;" style="text;html=1;align=center;verticalAlign=middle;whiteSpace=wrap;rounded=0;fontFamily=宋体;fontSize=20;fontColor=default;labelBackgroundColor=none;" parent="bjs6O7wamHotFaDu_ETg-1" vertex="1">
          <mxGeometry x="353.13" y="420" width="143.75" height="80" as="geometry" />
        </mxCell>
        <mxCell id="bjs6O7wamHotFaDu_ETg-17" value="&lt;div style=&quot;text-align: left;&quot;&gt;&lt;br&gt;&lt;/div&gt;" style="text;html=1;align=center;verticalAlign=middle;whiteSpace=wrap;rounded=0;fontFamily=宋体;fontSize=20;fontColor=default;labelBackgroundColor=none;" parent="bjs6O7wamHotFaDu_ETg-1" vertex="1">
          <mxGeometry x="115" y="410" width="90" height="60" as="geometry" />
        </mxCell>
        <mxCell id="bjs6O7wamHotFaDu_ETg-18" style="edgeStyle=orthogonalEdgeStyle;shape=connector;curved=1;rounded=0;orthogonalLoop=1;jettySize=auto;html=1;entryX=0;entryY=0.5;entryDx=0;entryDy=0;strokeColor=#990000;strokeWidth=2;align=center;verticalAlign=middle;fontFamily=宋体;fontSize=20;fontColor=default;labelBackgroundColor=default;startFill=0;endArrow=openThin;endFill=0;" parent="bjs6O7wamHotFaDu_ETg-1" source="bjs6O7wamHotFaDu_ETg-21" target="bjs6O7wamHotFaDu_ETg-25" edge="1">
          <mxGeometry relative="1" as="geometry">
            <Array as="points">
              <mxPoint x="127.5" y="560" />
              <mxPoint x="287.5" y="560" />
            </Array>
          </mxGeometry>
        </mxCell>
        <mxCell id="bjs6O7wamHotFaDu_ETg-19" style="edgeStyle=orthogonalEdgeStyle;shape=connector;curved=1;rounded=0;orthogonalLoop=1;jettySize=auto;html=1;entryX=0;entryY=0.5;entryDx=0;entryDy=0;strokeColor=#990000;strokeWidth=2;align=center;verticalAlign=middle;fontFamily=宋体;fontSize=20;fontColor=default;labelBackgroundColor=default;startFill=0;endArrow=openThin;endFill=0;" parent="bjs6O7wamHotFaDu_ETg-1" source="bjs6O7wamHotFaDu_ETg-21" target="bjs6O7wamHotFaDu_ETg-25" edge="1">
          <mxGeometry relative="1" as="geometry">
            <Array as="points">
              <mxPoint x="127.5" y="470" />
              <mxPoint x="287.5" y="470" />
            </Array>
          </mxGeometry>
        </mxCell>
        <mxCell id="bjs6O7wamHotFaDu_ETg-20" style="edgeStyle=orthogonalEdgeStyle;shape=connector;curved=1;rounded=0;orthogonalLoop=1;jettySize=auto;html=1;entryX=0;entryY=0.5;entryDx=0;entryDy=0;strokeColor=#990000;strokeWidth=2;align=center;verticalAlign=middle;fontFamily=宋体;fontSize=20;fontColor=default;labelBackgroundColor=default;startFill=0;endArrow=openThin;endFill=0;" parent="bjs6O7wamHotFaDu_ETg-1" source="bjs6O7wamHotFaDu_ETg-21" target="bjs6O7wamHotFaDu_ETg-25" edge="1">
          <mxGeometry relative="1" as="geometry" />
        </mxCell>
        <mxCell id="bjs6O7wamHotFaDu_ETg-21" value="&lt;span style=&quot;color: rgb(0, 0, 0); text-align: left;&quot;&gt;&lt;font&gt;伊朗&lt;/font&gt;&lt;/span&gt;" style="rounded=0;whiteSpace=wrap;html=1;fillColor=#f5f5f5;fontColor=#333333;strokeColor=#666666;fontFamily=宋体;fontSize=20;" parent="bjs6O7wamHotFaDu_ETg-1" vertex="1">
          <mxGeometry x="30" y="480" width="90" height="60" as="geometry" />
        </mxCell>
        <mxCell id="bjs6O7wamHotFaDu_ETg-22" value="&lt;span style=&quot;color: rgb(0, 0, 0); text-align: left;&quot;&gt;中央情报局&lt;/span&gt;" style="rounded=0;whiteSpace=wrap;html=1;fillColor=#f5f5f5;fontColor=#333333;strokeColor=#666666;fontFamily=宋体;fontSize=20;" parent="bjs6O7wamHotFaDu_ETg-1" vertex="1">
          <mxGeometry x="620" y="480" width="90" height="60" as="geometry" />
        </mxCell>
        <mxCell id="bjs6O7wamHotFaDu_ETg-23" value="&lt;div style=&quot;text-align: left;&quot;&gt;&lt;span style=&quot;background-color: transparent; text-align: center;&quot;&gt;接待来访&lt;/span&gt;&lt;span style=&quot;background-color: transparent; color: light-dark(rgb(0, 0, 0), rgb(255, 255, 255));&quot;&gt;,&lt;/span&gt;&lt;/div&gt;&lt;div style=&quot;text-align: left;&quot;&gt;&lt;span style=&quot;background-color: transparent; color: light-dark(rgb(0, 0, 0), rgb(255, 255, 255));&quot;&gt;2014-12-07&lt;/span&gt;&lt;/div&gt;" style="text;html=1;align=center;verticalAlign=middle;whiteSpace=wrap;rounded=0;fontFamily=宋体;fontSize=20;fontColor=default;labelBackgroundColor=none;" parent="bjs6O7wamHotFaDu_ETg-1" vertex="1">
          <mxGeometry x="141.25" y="480" width="132.5" height="60" as="geometry" />
        </mxCell>
        <mxCell id="bjs6O7wamHotFaDu_ETg-24" style="edgeStyle=orthogonalEdgeStyle;shape=connector;curved=1;rounded=0;orthogonalLoop=1;jettySize=auto;html=1;entryX=0;entryY=0.5;entryDx=0;entryDy=0;strokeColor=#990000;strokeWidth=2;align=center;verticalAlign=middle;fontFamily=宋体;fontSize=20;fontColor=default;labelBackgroundColor=default;startFill=0;endArrow=openThin;endFill=0;" parent="bjs6O7wamHotFaDu_ETg-1" source="bjs6O7wamHotFaDu_ETg-25" target="bjs6O7wamHotFaDu_ETg-28" edge="1">
          <mxGeometry relative="1" as="geometry" />
        </mxCell>
        <mxCell id="bjs6O7wamHotFaDu_ETg-25" value="&lt;span style=&quot;white-space: pre;&quot;&gt;阿富汗&lt;/span&gt;" style="rounded=0;whiteSpace=wrap;html=1;fillColor=#f5f5f5;fontColor=#333333;strokeColor=#666666;fontFamily=宋体;fontSize=20;" parent="bjs6O7wamHotFaDu_ETg-1" vertex="1">
          <mxGeometry x="287.5" y="480" width="90" height="60" as="geometry" />
        </mxCell>
        <mxCell id="bjs6O7wamHotFaDu_ETg-26" value="&lt;div style=&quot;text-align: left;&quot;&gt;&lt;span style=&quot;background-color: transparent; color: light-dark(rgb(0, 0, 0), rgb(255, 255, 255));&quot;&gt;商议,&lt;/span&gt;&lt;/div&gt;&lt;div style=&quot;text-align: left;&quot;&gt;&lt;span style=&quot;background-color: transparent; color: light-dark(rgb(0, 0, 0), rgb(255, 255, 255));&quot;&gt;2014-12-11&lt;/span&gt;&lt;/div&gt;" style="text;html=1;align=center;verticalAlign=middle;whiteSpace=wrap;rounded=0;fontFamily=宋体;fontSize=20;fontColor=default;labelBackgroundColor=none;" parent="bjs6O7wamHotFaDu_ETg-1" vertex="1">
          <mxGeometry x="127.5" y="420" width="160" height="60" as="geometry" />
        </mxCell>
        <mxCell id="bjs6O7wamHotFaDu_ETg-27" style="edgeStyle=orthogonalEdgeStyle;shape=connector;curved=1;rounded=0;orthogonalLoop=1;jettySize=auto;html=1;entryX=0;entryY=0.5;entryDx=0;entryDy=0;strokeColor=#990000;strokeWidth=2;align=center;verticalAlign=middle;fontFamily=宋体;fontSize=20;fontColor=default;labelBackgroundColor=default;startFill=0;endArrow=openThin;endFill=0;" parent="bjs6O7wamHotFaDu_ETg-1" source="bjs6O7wamHotFaDu_ETg-28" target="bjs6O7wamHotFaDu_ETg-22" edge="1">
          <mxGeometry relative="1" as="geometry" />
        </mxCell>
        <mxCell id="bjs6O7wamHotFaDu_ETg-28" value="&lt;span style=&quot;color: rgb(0, 0, 0); text-align: left;&quot;&gt;&lt;font&gt;政府首脑（阿富汗）&lt;/font&gt;&lt;/span&gt;" style="rounded=0;whiteSpace=wrap;html=1;fillColor=#f5f5f5;fontColor=#333333;strokeColor=#666666;labelBackgroundColor=none;fontFamily=宋体;fontSize=20;" parent="bjs6O7wamHotFaDu_ETg-1" vertex="1">
          <mxGeometry x="442.5" y="480" width="107.5" height="60" as="geometry" />
        </mxCell>
        <mxCell id="bjs6O7wamHotFaDu_ETg-29" value="&lt;div style=&quot;text-align: left;&quot;&gt;&lt;span style=&quot;background-color: transparent; text-align: center;&quot;&gt;批评或谴责&lt;/span&gt;&lt;span style=&quot;background-color: transparent; color: light-dark(rgb(0, 0, 0), rgb(255, 255, 255));&quot;&gt;,&lt;/span&gt;&lt;/div&gt;&lt;div style=&quot;text-align: left;&quot;&gt;&lt;span style=&quot;background-color: transparent; color: light-dark(rgb(0, 0, 0), rgb(255, 255, 255));&quot;&gt;2014-12-20&lt;/span&gt;&lt;/div&gt;" style="text;html=1;align=center;verticalAlign=middle;whiteSpace=wrap;rounded=0;fontFamily=宋体;fontSize=20;fontColor=default;labelBackgroundColor=none;" parent="bjs6O7wamHotFaDu_ETg-1" vertex="1">
          <mxGeometry x="510" y="427.5" width="180" height="65" as="geometry" />
        </mxCell>
        <mxCell id="bjs6O7wamHotFaDu_ETg-30" value="&lt;div style=&quot;text-align: left;&quot;&gt;&lt;span style=&quot;background-color: transparent; text-align: center;&quot;&gt;签署正式协议&lt;/span&gt;&lt;span style=&quot;background-color: transparent; color: light-dark(rgb(0, 0, 0), rgb(255, 255, 255));&quot;&gt;,&lt;/span&gt;&lt;/div&gt;&lt;div style=&quot;text-align: left;&quot;&gt;&lt;span style=&quot;background-color: transparent; color: light-dark(rgb(0, 0, 0), rgb(255, 255, 255));&quot;&gt;2014-12-15&lt;/span&gt;&lt;/div&gt;" style="text;html=1;align=center;verticalAlign=middle;whiteSpace=wrap;rounded=0;fontFamily=宋体;fontSize=20;fontColor=default;labelBackgroundColor=none;" parent="bjs6O7wamHotFaDu_ETg-1" vertex="1">
          <mxGeometry x="96.25" y="530" width="240" height="60" as="geometry" />
        </mxCell>
      </root>
    </mxGraphModel>
  </diagram>
</mxfile>
